# xmcd
#
# Track frame offsets:
#	150
#	10835
#	23054
#	32506
#	45429
#	59434
#	72323
#	86840
#	98935
#	109993
#	122673
#	134884
#	146228
#	160796
#	175207
#
# Disc length: 2532 seconds
#
# Revision: 0
# Processed by: cddbd v1.5.2PL0 Copyright (c) Steve Scherf et al.
# Submitted via: audiograbber 1.83.01
#
DISCID=d309e20f
DTITLE=Vari - Crooners and swingers
DYEAR=1900
DGENRE=Swing
TTITLE0=hey! jelous lover - sinatra
TTITLE1=sway - dean martin
TTITLE2=something's gotta give - sammy davis jr
TTITLE3=chicago style - bing crosby, bob hope
TTITLE4=stranger in paradise - tony bennet
TTITLE5=i've gotta my love to keep me warm - dick powell
TTITLE6=candy - j. mercer altri
TTITLE7=high noon 8do not forsake me) - frankie lane
TTITLE8=singing the blues - guy mitchel
TTITLE9=cry me a river - julie london
TTITLE10=is you is. or is you ain,t my baby? -louis jordan
TTITLE11=oh babe - louis prima orchestra
TTITLE12=here in my heart - al martino
TTITLE13=that old black magic - mel tomé
TTITLE14=i apologize - bill eckstine
EXTD=tamerlanoit
EXTT0=
EXTT1=
EXTT2=
EXTT3=
EXTT4=
EXTT5=
EXTT6=
EXTT7=
EXTT8=
EXTT9=
EXTT10=
EXTT11=
EXTT12=
EXTT13=
EXTT14=
PLAYORDER=
